<svg width="256" height="256" viewBox="0 0 256 256" fill="none" xmlns="http://www.w3.org/2000/svg">
  <rect width="256" height="256" fill="#102B46"/>
  <path d="M-31 198C27 182 86 140 107 103C119 82 113 65 102 45C90 24 101 6 135 1C177 -5 211 4 211 44C211 77 194 111 181 136C170 156 176 186 200 188C226 190 256 171 286 156V194C257 210 224 222 196 223C160 224 133 210 126 178C119 149 137 117 152 87C164 62 164 48 143 47C119 45 101 65 96 98C93 123 103 136 103 158C103 189 76 216 23 247L-31 277V198Z" fill="#00DFA2"/>
</svg>
